<svg version="1.1" id="Layer_1" xmlns="http://www.w3.org/2000/svg" xmlns:xlink="http://www.w3.org/1999/xlink" x="0px" y="0px"
	 width="100%" viewBox="0 0 50 50" enable-background="new 0 0 50 50" xml:space="preserve">
<path fill="#AAB3C2" opacity="1.000000" stroke="none" 
	d="
M35.251381,20.248514 
	C27.349329,28.155315 19.742300,35.857090 12.005251,43.425953 
	C10.633699,44.767689 8.720772,45.556015 7.057839,46.599892 
	C6.555936,46.161587 6.054034,45.723286 5.552132,45.284981 
	C6.532769,43.518723 7.183553,41.429153 8.546996,40.038105 
	C18.180876,30.209150 27.961060,20.523598 38.387436,10.099579 
	C33.776779,10.099579 30.054428,10.099579 26.296415,10.099579 
	C26.865692,5.282613 27.017323,5.254804 45.638237,6.181034 
	C45.638237,12.543217 45.638237,18.938644 45.638237,25.359564 
	C42.058750,25.933233 42.045868,25.933367 42.004738,21.984800 
	C41.979233,19.536320 42.000008,17.087360 42.000008,13.025656 
	C39.222866,16.005642 37.362476,18.001915 35.251381,20.248514 
z"/>
</svg>